<svg xmlns="http://www.w3.org/2000/svg" viewBox="0 0 680 440" width="680" height="440"><style>text{font-family:-apple-system,"Sukhumvit Set","Thonburi",sans-serif}.th{font-size:14px;font-weight:500}.ts{font-size:12px}</style><defs><marker id="arrow" viewBox="0 0 10 10" refX="8" refY="5" markerWidth="6" markerHeight="6" orient="auto-start-reverse"><path d="M2 1L8 5L2 9" fill="none" stroke="context-stroke" stroke-width="1.5" stroke-linecap="round" stroke-linejoin="round"/></marker></defs><rect width="100%" height="100%" fill="#FFFFFF"/><g><rect x="160" y="30" width="150" height="50" rx="4" fill="#F1EFE8" stroke="#5F5E5A" stroke-width="0.8"/><text class="th" x="235.0" y="51.0" text-anchor="middle" fill="#444441">Browser</text><text class="ts" x="235.0" y="69.0" text-anchor="middle" fill="#5F5E5A">localhost:80</text></g><line x1="235" y1="82" x2="235" y2="108" stroke="#888780" stroke-width="1" marker-end="url(#arrow)"/><rect x="40" y="92" width="390" height="293" rx="8" fill="none" stroke="#888780" stroke-width="0.8" stroke-dasharray="5 4"/><text class="ts" x="52" y="377" text-anchor="start" fill="#5F5E5A">blockscout (docker compose)</text><g><rect x="150" y="110" width="170" height="50" rx="4" fill="#EEEDFE" stroke="#534AB7" stroke-width="0.8"/><text class="th" x="235.0" y="131.0" text-anchor="middle" fill="#3C3489">nginx proxy</text><text class="ts" x="235.0" y="149.0" text-anchor="middle" fill="#534AB7">/ และ /api</text></g><line x1="235" y1="162" x2="235" y2="180" stroke="#888780" stroke-width="1"/><line x1="140" y1="180" x2="330" y2="180" stroke="#888780" stroke-width="1"/><line x1="140" y1="180" x2="140" y2="198" stroke="#888780" stroke-width="1" marker-end="url(#arrow)"/><line x1="330" y1="180" x2="330" y2="198" stroke="#888780" stroke-width="1" marker-end="url(#arrow)"/><g><rect x="60" y="200" width="160" height="52" rx="4" fill="#EEEDFE" stroke="#534AB7" stroke-width="0.8"/><text class="th" x="140.0" y="222.0" text-anchor="middle" fill="#3C3489">frontend</text><text class="ts" x="140.0" y="240.0" text-anchor="middle" fill="#534AB7">Next.js :3000</text></g><g><rect x="250" y="200" width="160" height="52" rx="4" fill="#EEEDFE" stroke="#534AB7" stroke-width="0.8"/><text class="th" x="330.0" y="222.0" text-anchor="middle" fill="#3C3489">backend</text><text class="ts" x="330.0" y="240.0" text-anchor="middle" fill="#534AB7">indexer + API :4000</text></g><line x1="330" y1="254" x2="330" y2="276" stroke="#888780" stroke-width="1"/><line x1="235" y1="276" x2="360" y2="276" stroke="#888780" stroke-width="1"/><line x1="235" y1="276" x2="235" y2="298" stroke="#888780" stroke-width="1" marker-end="url(#arrow)"/><line x1="360" y1="276" x2="360" y2="298" stroke="#888780" stroke-width="1" marker-end="url(#arrow)"/><g><rect x="180" y="300" width="110" height="50" rx="4" fill="#EEEDFE" stroke="#534AB7" stroke-width="0.8"/><text class="th" x="235.0" y="321.0" text-anchor="middle" fill="#3C3489">postgres</text><text class="ts" x="235.0" y="339.0" text-anchor="middle" fill="#534AB7">ข้อมูลที่ index</text></g><g><rect x="310" y="300" width="100" height="50" rx="4" fill="#EEEDFE" stroke="#534AB7" stroke-width="0.8"/><text class="th" x="360.0" y="321.0" text-anchor="middle" fill="#3C3489">redis</text><text class="ts" x="360.0" y="339.0" text-anchor="middle" fill="#534AB7">cache</text></g><g><rect x="480" y="30" width="140" height="50" rx="4" fill="#F1EFE8" stroke="#5F5E5A" stroke-width="0.8"/><text class="th" x="550.0" y="51.0" text-anchor="middle" fill="#444441">faucet.sh</text><text class="ts" x="550.0" y="69.0" text-anchor="middle" fill="#5F5E5A">cast send</text></g><line x1="550" y1="82" x2="550" y2="198" stroke="#888780" stroke-width="1" marker-end="url(#arrow)"/><rect x="460" y="170" width="180" height="215" rx="8" fill="none" stroke="#888780" stroke-width="0.8" stroke-dasharray="5 4"/><text class="ts" x="472" y="377" text-anchor="start" fill="#5F5E5A">potato-net</text><line x1="412" y1="226" x2="476" y2="226" stroke="#1D9E75" stroke-width="1" marker-end="url(#arrow)"/><text class="ts" x="444" y="217" text-anchor="middle" fill="#5F5E5A">RPC</text><g><rect x="480" y="200" width="140" height="52" rx="4" fill="#E1F5EE" stroke="#0F6E56" stroke-width="0.8"/><text class="th" x="550.0" y="222.0" text-anchor="middle" fill="#085041">node0</text><text class="ts" x="550.0" y="240.0" text-anchor="middle" fill="#0F6E56">:8545  ws :8546</text></g><line x1="550" y1="254" x2="550" y2="298" stroke="#1D9E75" stroke-width="1" stroke-dasharray="3 3" marker-end="url(#arrow)"/><g><rect x="480" y="300" width="140" height="50" rx="4" fill="#E1F5EE" stroke="#0F6E56" stroke-width="0.8"/><text class="th" x="550.0" y="321.0" text-anchor="middle" fill="#085041">node1..3</text><text class="ts" x="550.0" y="339.0" text-anchor="middle" fill="#0F6E56">validators</text></g><g><rect x="40" y="406" width="14" height="14" rx="4" fill="#EEEDFE" stroke="#534AB7" stroke-width="0.8"/></g><text class="ts" x="62" y="418" text-anchor="start" fill="#5F5E5A">ชิ้นใหม่รอบนี้</text><g><rect x="170" y="406" width="14" height="14" rx="4" fill="#E1F5EE" stroke="#0F6E56" stroke-width="0.8"/></g><text class="ts" x="192" y="418" text-anchor="start" fill="#5F5E5A">เชนที่มีอยู่แล้ว</text></svg>