<svg xmlns="http://www.w3.org/2000/svg" viewBox="0 0 680 520" width="680" height="520"><style>text{font-family:-apple-system,"Sukhumvit Set","Thonburi",sans-serif}.th{font-size:14px;font-weight:500}.ts{font-size:12px}</style><defs><marker id="arrow" viewBox="0 0 10 10" refX="8" refY="5" markerWidth="6" markerHeight="6" orient="auto-start-reverse"><path d="M2 1L8 5L2 9" fill="none" stroke="context-stroke" stroke-width="1.5" stroke-linecap="round" stroke-linejoin="round"/></marker></defs><rect width="100%" height="100%" fill="#FFFFFF"/><g><rect x="18" y="20" width="124" height="40" rx="4" fill="#F1EFE8" stroke="#5F5E5A" stroke-width="0.8"/><text class="th" x="80.0" y="45.0" text-anchor="middle" fill="#444441">EOA / MetaMask</text></g><line x1="80" y1="60" x2="80" y2="500" stroke="#B4B2A9" stroke-width="1" stroke-dasharray="3 4"/><g><rect x="168" y="20" width="124" height="40" rx="4" fill="#EEEDFE" stroke="#534AB7" stroke-width="0.8"/><text class="th" x="230.0" y="45.0" text-anchor="middle" fill="#3C3489">PotatoBridge</text></g><line x1="230" y1="60" x2="230" y2="500" stroke="#B4B2A9" stroke-width="1" stroke-dasharray="3 4"/><g><rect x="338" y="20" width="124" height="40" rx="4" fill="#E1F5EE" stroke="#0F6E56" stroke-width="0.8"/><text class="th" x="400.0" y="45.0" text-anchor="middle" fill="#085041">ICS-20 0x0802</text></g><line x1="400" y1="60" x2="400" y2="500" stroke="#B4B2A9" stroke-width="1" stroke-dasharray="3 4"/><g><rect x="528" y="20" width="124" height="40" rx="4" fill="#E1F5EE" stroke="#0F6E56" stroke-width="0.8"/><text class="th" x="590.0" y="45.0" text-anchor="middle" fill="#085041">gaia (Hermes)</text></g><line x1="590" y1="60" x2="590" y2="500" stroke="#B4B2A9" stroke-width="1" stroke-dasharray="3 4"/><rect x="20" y="76" width="640" height="104" rx="8" fill="none" stroke="#888780" stroke-width="0.8" stroke-dasharray="5 4"/><text class="ts" x="30" y="94" text-anchor="start" fill="#5F5E5A">A: EOA เรียกตรง</text><line x1="83" y1="130" x2="395" y2="130" stroke="#5F5E5A" stroke-width="1" marker-end="url(#arrow)"/><text class="ts" x="240" y="123" text-anchor="middle" fill="#5F5E5A">transfer(..., sender = EOA)</text><g><rect x="325" y="142" width="150" height="28" rx="4" fill="#E1F5EE" stroke="#0F6E56" stroke-width="0.8"/><text class="ts" x="400.0" y="161.0" text-anchor="middle" fill="#085041">escrow + packet</text></g><rect x="20" y="196" width="640" height="184" rx="8" fill="none" stroke="#888780" stroke-width="0.8" stroke-dasharray="5 4"/><text class="ts" x="30" y="214" text-anchor="start" fill="#5F5E5A">B: ผ่าน contract</text><line x1="83" y1="250" x2="225" y2="250" stroke="#5F5E5A" stroke-width="1" marker-end="url(#arrow)"/><text class="ts" x="155.0" y="243" text-anchor="middle" fill="#5F5E5A">bridge{value}(to)</text><line x1="233" y1="300" x2="395" y2="300" stroke="#5F5E5A" stroke-width="1" marker-end="url(#arrow)"/><text class="ts" x="315.0" y="293" text-anchor="middle" fill="#5F5E5A">transfer(..., sender = this)</text><g><rect x="325" y="312" width="150" height="28" rx="4" fill="#E1F5EE" stroke="#0F6E56" stroke-width="0.8"/><text class="ts" x="400.0" y="331.0" text-anchor="middle" fill="#085041">escrow + packet</text></g><g><rect x="140" y="340" width="180" height="30" rx="4" fill="#FAECE7" stroke="#993C1D" stroke-width="0.8"/><text class="ts" x="230.0" y="360.0" text-anchor="middle" fill="#712B13">sender ≠ msg.sender → revert</text></g><line x1="403" y1="420" x2="585" y2="420" stroke="#5F5E5A" stroke-width="1" stroke-dasharray="4 3" marker-end="url(#arrow)"/><text class="ts" x="495.0" y="413" text-anchor="middle" fill="#5F5E5A">packet → mint ibc/…</text><text class="ts" x="495" y="450" text-anchor="middle" fill="#5F5E5A">(relay เหมือน diagram 09)</text></svg>