<svg xmlns="http://www.w3.org/2000/svg" viewBox="0 0 680 580" width="680" height="580"><style>text{font-family:-apple-system,"Sukhumvit Set","Thonburi",sans-serif}.th{font-size:14px;font-weight:500}.ts{font-size:12px}</style><defs><marker id="arrow" viewBox="0 0 10 10" refX="8" refY="5" markerWidth="6" markerHeight="6" orient="auto-start-reverse"><path d="M2 1L8 5L2 9" fill="none" stroke="context-stroke" stroke-width="1.5" stroke-linecap="round" stroke-linejoin="round"/></marker></defs><rect width="100%" height="100%" fill="#FFFFFF"/><g><rect x="12" y="16" width="590" height="56" rx="4" fill="#F1EFE8" stroke="#5F5E5A" stroke-width="0.8"/></g><text class="th" x="24" y="41" text-anchor="start" fill="#444441">L8 Frontend</text><text class="ts" x="24" y="59" text-anchor="start" fill="#5F5E5A">หน้าเว็บ + wallet</text><g><rect x="152" y="24" width="103" height="40" rx="4" fill="#EEEDFE" stroke="#534AB7" stroke-width="0.8"/><text class="th" x="203.5" y="40.0" text-anchor="middle" fill="#3C3489">React+wagmi</text><text class="ts" x="203.5" y="58.0" text-anchor="middle" fill="#534AB7">web/ :5173</text></g><g><rect x="263" y="24" width="103" height="40" rx="4" fill="#EEEDFE" stroke="#534AB7" stroke-width="0.8"/><text class="th" x="314.5" y="40.0" text-anchor="middle" fill="#3C3489">MetaMask</text><text class="ts" x="314.5" y="58.0" text-anchor="middle" fill="#534AB7">EVM wallet</text></g><g><rect x="374" y="24" width="103" height="40" rx="4" fill="#EEEDFE" stroke="#534AB7" stroke-width="0.8"/><text class="th" x="425.5" y="40.0" text-anchor="middle" fill="#3C3489">Keplr</text><text class="ts" x="425.5" y="58.0" text-anchor="middle" fill="#534AB7">Cosmos wallet</text></g><g><rect x="485" y="24" width="103" height="40" rx="4" fill="#EEEDFE" stroke="#534AB7" stroke-width="0.8"/><text class="th" x="536.5" y="40.0" text-anchor="middle" fill="#3C3489">Burner</text><text class="ts" x="536.5" y="58.0" text-anchor="middle" fill="#534AB7">dev only</text></g><g><rect x="12" y="82" width="590" height="56" rx="4" fill="#F1EFE8" stroke="#5F5E5A" stroke-width="0.8"/></g><text class="th" x="24" y="107" text-anchor="start" fill="#444441">L7 Off-chain</text><text class="ts" x="24" y="125" text-anchor="start" fill="#5F5E5A">บริการรอบ chain</text><g><rect x="152" y="90" width="103" height="40" rx="4" fill="#EEEDFE" stroke="#534AB7" stroke-width="0.8"/><text class="th" x="203.5" y="106.0" text-anchor="middle" fill="#3C3489">Blockscout</text><text class="ts" x="203.5" y="124.0" text-anchor="middle" fill="#534AB7">explorer</text></g><g><rect x="263" y="90" width="103" height="40" rx="4" fill="#EEEDFE" stroke="#534AB7" stroke-width="0.8"/><text class="th" x="314.5" y="106.0" text-anchor="middle" fill="#3C3489">Ponder</text><text class="ts" x="314.5" y="124.0" text-anchor="middle" fill="#534AB7">indexer GraphQL</text></g><g><rect x="374" y="90" width="103" height="40" rx="4" fill="#EEEDFE" stroke="#534AB7" stroke-width="0.8"/><text class="th" x="425.5" y="106.0" text-anchor="middle" fill="#3C3489">Hermes</text><text class="ts" x="425.5" y="124.0" text-anchor="middle" fill="#534AB7">IBC relayer</text></g><g><rect x="485" y="90" width="103" height="40" rx="4" fill="#EEEDFE" stroke="#534AB7" stroke-width="0.8"/><text class="th" x="536.5" y="106.0" text-anchor="middle" fill="#3C3489">Oracle push</text><text class="ts" x="536.5" y="124.0" text-anchor="middle" fill="#534AB7">+ faucet</text></g><g><rect x="12" y="148" width="590" height="56" rx="4" fill="#F1EFE8" stroke="#5F5E5A" stroke-width="0.8"/></g><text class="th" x="24" y="173" text-anchor="start" fill="#444441">L6 API</text><text class="ts" x="24" y="191" text-anchor="start" fill="#5F5E5A">ประตูเข้า node</text><g><rect x="152" y="156" width="103" height="40" rx="4" fill="#E1F5EE" stroke="#0F6E56" stroke-width="0.8"/><text class="th" x="203.5" y="172.0" text-anchor="middle" fill="#085041">JSON-RPC</text><text class="ts" x="203.5" y="190.0" text-anchor="middle" fill="#0F6E56">:8545 EVM</text></g><g><rect x="263" y="156" width="103" height="40" rx="4" fill="#E1F5EE" stroke="#0F6E56" stroke-width="0.8"/><text class="th" x="314.5" y="172.0" text-anchor="middle" fill="#085041">CometBFT RPC</text><text class="ts" x="314.5" y="190.0" text-anchor="middle" fill="#0F6E56">:26657</text></g><g><rect x="374" y="156" width="103" height="40" rx="4" fill="#E1F5EE" stroke="#0F6E56" stroke-width="0.8"/><text class="th" x="425.5" y="172.0" text-anchor="middle" fill="#085041">REST</text><text class="ts" x="425.5" y="190.0" text-anchor="middle" fill="#0F6E56">:1317</text></g><g><rect x="485" y="156" width="103" height="40" rx="4" fill="#E1F5EE" stroke="#0F6E56" stroke-width="0.8"/><text class="th" x="536.5" y="172.0" text-anchor="middle" fill="#085041">gRPC</text><text class="ts" x="536.5" y="190.0" text-anchor="middle" fill="#0F6E56">:9090</text></g><g><rect x="12" y="214" width="590" height="56" rx="4" fill="#F1EFE8" stroke="#5F5E5A" stroke-width="0.8"/></g><text class="th" x="24" y="239" text-anchor="start" fill="#444441">L5 Contracts</text><text class="ts" x="24" y="257" text-anchor="start" fill="#5F5E5A">Solidity · Foundry</text><g><rect x="152" y="222" width="103" height="40" rx="4" fill="#E1F5EE" stroke="#0F6E56" stroke-width="0.8"/><text class="th" x="203.5" y="238.0" text-anchor="middle" fill="#085041">Uniswap v2</text><text class="ts" x="203.5" y="256.0" text-anchor="middle" fill="#0F6E56">DEX + router</text></g><g><rect x="263" y="222" width="103" height="40" rx="4" fill="#E1F5EE" stroke="#0F6E56" stroke-width="0.8"/><text class="th" x="314.5" y="238.0" text-anchor="middle" fill="#085041">Morpho Blue</text><text class="ts" x="314.5" y="256.0" text-anchor="middle" fill="#0F6E56">lending</text></g><g><rect x="374" y="222" width="103" height="40" rx="4" fill="#E1F5EE" stroke="#0F6E56" stroke-width="0.8"/><text class="th" x="425.5" y="238.0" text-anchor="middle" fill="#085041">PotatoBridge</text><text class="ts" x="425.5" y="256.0" text-anchor="middle" fill="#0F6E56">IBC ICS-20</text></g><g><rect x="485" y="222" width="103" height="40" rx="4" fill="#E1F5EE" stroke="#0F6E56" stroke-width="0.8"/><text class="th" x="536.5" y="238.0" text-anchor="middle" fill="#085041">MockUSDC</text><text class="ts" x="536.5" y="256.0" text-anchor="middle" fill="#0F6E56">+ price oracle</text></g><g><rect x="12" y="280" width="590" height="56" rx="4" fill="#F1EFE8" stroke="#5F5E5A" stroke-width="0.8"/></g><text class="th" x="24" y="305" text-anchor="start" fill="#444441">L4 EVM engine</text><text class="ts" x="24" y="323" text-anchor="start" fill="#5F5E5A">cosmos/evm v0.7.3</text><g><rect x="152" y="288" width="103" height="40" rx="4" fill="#E1F5EE" stroke="#0F6E56" stroke-width="0.8"/><text class="th" x="203.5" y="304.0" text-anchor="middle" fill="#085041">x/vm</text><text class="ts" x="203.5" y="322.0" text-anchor="middle" fill="#0F6E56">EVM state</text></g><g><rect x="263" y="288" width="103" height="40" rx="4" fill="#E1F5EE" stroke="#0F6E56" stroke-width="0.8"/><text class="th" x="314.5" y="304.0" text-anchor="middle" fill="#085041">feemarket</text><text class="ts" x="314.5" y="322.0" text-anchor="middle" fill="#0F6E56">EIP-1559</text></g><g><rect x="374" y="288" width="103" height="40" rx="4" fill="#E1F5EE" stroke="#0F6E56" stroke-width="0.8"/><text class="th" x="425.5" y="304.0" text-anchor="middle" fill="#085041">Precompiles</text><text class="ts" x="425.5" y="322.0" text-anchor="middle" fill="#0F6E56">WPOTATO, ICS-20</text></g><g><rect x="485" y="288" width="103" height="40" rx="4" fill="#E1F5EE" stroke="#0F6E56" stroke-width="0.8"/><text class="th" x="536.5" y="304.0" text-anchor="middle" fill="#085041">Mempool</text><text class="ts" x="536.5" y="322.0" text-anchor="middle" fill="#0F6E56">EVM tx pool</text></g><g><rect x="12" y="346" width="590" height="56" rx="4" fill="#F1EFE8" stroke="#5F5E5A" stroke-width="0.8"/></g><text class="th" x="24" y="371" text-anchor="start" fill="#444441">L3 SDK app</text><text class="ts" x="24" y="389" text-anchor="start" fill="#5F5E5A">potatod · potato-1</text><g><rect x="152" y="354" width="103" height="40" rx="4" fill="#E1F5EE" stroke="#0F6E56" stroke-width="0.8"/><text class="th" x="203.5" y="370.0" text-anchor="middle" fill="#085041">bank/staking</text><text class="ts" x="203.5" y="388.0" text-anchor="middle" fill="#0F6E56">account, stake</text></g><g><rect x="263" y="354" width="103" height="40" rx="4" fill="#E1F5EE" stroke="#0F6E56" stroke-width="0.8"/><text class="th" x="314.5" y="370.0" text-anchor="middle" fill="#085041">gov/upgrade</text><text class="ts" x="314.5" y="388.0" text-anchor="middle" fill="#0F6E56">potato-v2</text></g><g><rect x="374" y="354" width="103" height="40" rx="4" fill="#E1F5EE" stroke="#0F6E56" stroke-width="0.8"/><text class="th" x="425.5" y="370.0" text-anchor="middle" fill="#085041">IBC core</text><text class="ts" x="425.5" y="388.0" text-anchor="middle" fill="#0F6E56">+ transfer</text></g><g><rect x="485" y="354" width="103" height="40" rx="4" fill="#E1F5EE" stroke="#0F6E56" stroke-width="0.8"/><text class="th" x="536.5" y="370.0" text-anchor="middle" fill="#085041">mint/distr</text><text class="ts" x="536.5" y="388.0" text-anchor="middle" fill="#0F6E56">slashing ...</text></g><g><rect x="12" y="412" width="590" height="56" rx="4" fill="#F1EFE8" stroke="#5F5E5A" stroke-width="0.8"/></g><text class="th" x="24" y="437" text-anchor="start" fill="#444441">L2 Consensus</text><text class="ts" x="24" y="455" text-anchor="start" fill="#5F5E5A">CometBFT</text><g><rect x="152" y="420" width="103" height="40" rx="4" fill="#E1F5EE" stroke="#0F6E56" stroke-width="0.8"/><text class="th" x="203.5" y="436.0" text-anchor="middle" fill="#085041">4 validators</text><text class="ts" x="203.5" y="454.0" text-anchor="middle" fill="#0F6E56">node0 - node3</text></g><g><rect x="263" y="420" width="103" height="40" rx="4" fill="#E1F5EE" stroke="#0F6E56" stroke-width="0.8"/><text class="th" x="314.5" y="436.0" text-anchor="middle" fill="#085041">BFT ≥ 2/3</text><text class="ts" x="314.5" y="454.0" text-anchor="middle" fill="#0F6E56">ทน 1 node ล่ม</text></g><g><rect x="374" y="420" width="103" height="40" rx="4" fill="#E1F5EE" stroke="#0F6E56" stroke-width="0.8"/><text class="th" x="425.5" y="436.0" text-anchor="middle" fill="#085041">P2P gossip</text><text class="ts" x="425.5" y="454.0" text-anchor="middle" fill="#0F6E56">:26656</text></g><g><rect x="485" y="420" width="103" height="40" rx="4" fill="#E1F5EE" stroke="#0F6E56" stroke-width="0.8"/><text class="th" x="536.5" y="436.0" text-anchor="middle" fill="#085041">ABCI</text><text class="ts" x="536.5" y="454.0" text-anchor="middle" fill="#0F6E56">↔ SDK app</text></g><g><rect x="12" y="478" width="590" height="56" rx="4" fill="#F1EFE8" stroke="#5F5E5A" stroke-width="0.8"/></g><text class="th" x="24" y="503" text-anchor="start" fill="#444441">L1 Infra</text><text class="ts" x="24" y="521" text-anchor="start" fill="#5F5E5A">รันบนเครื่อง</text><g><rect x="152" y="486" width="103" height="40" rx="4" fill="#FAEEDA" stroke="#854F0B" stroke-width="0.8"/><text class="th" x="203.5" y="502.0" text-anchor="middle" fill="#633806">Docker</text><text class="ts" x="203.5" y="520.0" text-anchor="middle" fill="#854F0B">localnet 4 node</text></g><g><rect x="263" y="486" width="103" height="40" rx="4" fill="#FAEEDA" stroke="#854F0B" stroke-width="0.8"/><text class="th" x="314.5" y="502.0" text-anchor="middle" fill="#633806">gaia-local</text><text class="ts" x="314.5" y="520.0" text-anchor="middle" fill="#854F0B">chain ปลายทาง</text></g><g><rect x="374" y="486" width="103" height="40" rx="4" fill="#FAEEDA" stroke="#854F0B" stroke-width="0.8"/><text class="th" x="425.5" y="502.0" text-anchor="middle" fill="#633806">Scripts</text><text class="ts" x="425.5" y="520.0" text-anchor="middle" fill="#854F0B">smoke tests</text></g><g><rect x="485" y="486" width="103" height="40" rx="4" fill="#FAEEDA" stroke="#854F0B" stroke-width="0.8"/><text class="th" x="536.5" y="502.0" text-anchor="middle" fill="#633806">Makefile</text><text class="ts" x="536.5" y="520.0" text-anchor="middle" fill="#854F0B">build potatod</text></g><line x1="610" y1="20" x2="616" y2="20" stroke="#888780" stroke-width="1"/><line x1="616" y1="20" x2="616" y2="134" stroke="#888780" stroke-width="1"/><line x1="610" y1="134" x2="616" y2="134" stroke="#888780" stroke-width="1"/><text class="ts" x="622" y="81.0" text-anchor="start" fill="#5F5E5A">off-chain</text><line x1="610" y1="152" x2="616" y2="152" stroke="#888780" stroke-width="1"/><line x1="616" y1="152" x2="616" y2="464" stroke="#888780" stroke-width="1"/><line x1="610" y1="464" x2="616" y2="464" stroke="#888780" stroke-width="1"/><text class="ts" x="622" y="304.0" text-anchor="start" fill="#5F5E5A">on-chain</text><text class="ts" x="622" y="320.0" text-anchor="start" fill="#5F5E5A">potatod</text><line x1="610" y1="482" x2="616" y2="482" stroke="#888780" stroke-width="1"/><line x1="616" y1="482" x2="616" y2="530" stroke="#888780" stroke-width="1"/><line x1="610" y1="530" x2="616" y2="530" stroke="#888780" stroke-width="1"/><text class="ts" x="622" y="510.0" text-anchor="start" fill="#5F5E5A">infra</text><g><rect x="12" y="550" width="14" height="14" rx="4" fill="#EEEDFE" stroke="#534AB7" stroke-width="0.8"/></g><text class="ts" x="32" y="562" text-anchor="start" fill="#5F5E5A">off-chain / ผู้ใช้</text><g><rect x="150" y="550" width="14" height="14" rx="4" fill="#E1F5EE" stroke="#0F6E56" stroke-width="0.8"/></g><text class="ts" x="170" y="562" text-anchor="start" fill="#5F5E5A">on-chain node</text><g><rect x="275" y="550" width="14" height="14" rx="4" fill="#FAEEDA" stroke="#854F0B" stroke-width="0.8"/></g><text class="ts" x="295" y="562" text-anchor="start" fill="#5F5E5A">infra</text><text class="ts" x="602" y="562" text-anchor="end" fill="#5F5E5A">ชั้นบนเรียกใช้ชั้นล่าง ↓</text></svg>